<svg width="195" height="40" viewBox="0 0 195 40" fill="none" xmlns="http://www.w3.org/2000/svg">
<g clip-path="url(#clip0_335_947)">
<path d="M174.349 4.23145H181.262L194.427 35.8975H186.803L184.217 29.2556H171.132L168.493 35.8975H161.186L174.349 4.23145ZM173.321 23.7718H182.053L180.708 20.219C179.759 17.7218 178.598 14.5809 177.754 12.1866H177.648C176.804 14.5809 175.643 17.7475 174.614 20.3992L173.321 23.7718Z" fill="#292524"/>
<path d="M66.0261 4.23145H72.9385L86.103 35.8975H78.4791L75.8935 29.2556H62.8074L60.1695 35.8975H52.8613L66.0261 4.23145ZM64.9977 23.7718H73.73L72.3839 20.2447C71.4344 17.7475 70.2736 14.6067 69.4291 12.2124H69.3506C68.5058 14.6067 67.3454 17.7733 66.3167 20.425L64.9977 23.7718Z" fill="#292524"/>
<path d="M118.774 20.2929C118.774 24.9869 118.119 28.3872 116.285 30.8991C114.005 34.0454 109.866 35.8975 104.706 35.8975C99.5446 35.8975 95.3532 34.0454 93.1006 30.8229C91.3711 28.3363 90.6904 24.911 90.6904 20.4705V4.23145H97.7636V20.2167C97.7636 23.5407 98.0779 25.5706 99.0206 27.017C99.9896 28.514 101.876 29.7318 104.889 29.7318C107.692 29.7318 109.527 28.7422 110.573 27.1436C111.543 25.6722 111.963 23.5153 111.963 20.2422V4.23145H118.774V20.2929Z" fill="#292524"/>
<path d="M128.542 4.23145H138.807C142.689 4.23145 146.358 4.74593 148.965 6.34077C151.358 7.78139 152.9 10.148 152.9 13.775C152.9 17.8394 150.586 21.1578 146.252 22.5212L155.453 35.8975H147.183L138.913 23.3958H135.696V35.8719H128.516V4.23145H128.542ZM139.338 18.1739C141.279 18.1739 142.769 17.968 143.859 17.4278C145.082 16.8105 145.72 15.7558 145.72 14.2381C145.72 12.746 145.188 11.7943 143.859 11.1255C142.742 10.5595 140.96 10.3024 138.487 10.3024H135.722V18.1739H139.338Z" fill="#292524"/>
<path opacity="0.75" d="M24.294 0.401367C23.702 3.1599 23.6859 6.01413 24.0859 8.82047C24.4859 11.6269 25.3498 14.3854 26.5818 16.9526C27.8137 19.5357 29.4135 21.9275 31.3174 24.0323C33.2374 26.1372 35.4452 27.9708 37.9408 29.2782L33.3172 35.0505C31.0615 32.579 28.9496 30.0915 27.0618 27.4288C25.174 24.7817 23.51 22.0073 22.0861 19.1052C20.6622 16.2191 19.4943 13.1895 18.5504 10.0802C17.6065 6.95486 16.9185 3.73394 16.3105 0.417317H24.294V0.401367Z" fill="url(#paint0_linear_335_947)"/>
<path opacity="0.75" d="M24.3273 0.348633C23.6873 3.67967 22.7839 6.93713 21.824 10.061C20.8801 13.1689 19.7122 16.1971 18.3043 19.0978C16.8964 21.9985 15.2325 24.7717 13.3447 27.4173C11.4728 30.0791 9.34495 32.5655 7.08911 35.0517L2.48145 29.2822C4.97726 27.9752 7.20109 26.1426 9.12095 24.0386C11.0408 21.9348 12.6407 19.5282 13.8726 16.9621C15.1045 14.3961 15.9684 11.6388 16.3685 8.81785C16.7684 6.01276 16.8219 3.09926 16.198 0.357949L24.3273 0.348633Z" fill="url(#paint1_linear_335_947)"/>
<path opacity="0.75" d="M0 22.2471C3.3498 21.2744 6.6996 20.4585 10.0655 19.9408C13.4315 19.4074 16.8299 19.1406 20.2282 19.1406C23.6265 19.1406 27.0085 19.4231 30.3747 19.9722C33.7406 20.5056 37.0743 21.3214 40.4239 22.2941L37.3169 28.9934C34.8249 27.4244 32.0414 26.2949 29.1449 25.5262C26.248 24.773 23.2381 24.3808 20.2282 24.3965C17.2182 24.3965 14.2083 24.7886 11.3116 25.5574C8.41496 26.3262 5.63155 27.4559 3.1556 29.0405L0 22.2471Z" fill="url(#paint2_linear_335_947)"/>
<path d="M6.87991 35.3382L7.72218 34.3673C4.10424 31.2582 1.7282 26.9647 1.21135 21.9707L0 22.309C0.5976 27.5285 3.08438 32.0843 6.87991 35.3382Z" fill="#BE185D"/>
<path d="M40.4193 22.2882L39.2122 21.9463C38.678 26.9362 36.3338 31.2851 32.7246 34.4018L33.4972 35.2491C37.2844 31.9871 39.8044 27.504 40.4193 22.2882Z" fill="url(#paint3_linear_335_947)"/>
<path d="M16.2002 0.353562L16.4095 1.41576C17.6531 1.18948 18.9457 1.07483 20.2538 1.07483C21.5781 1.07483 22.8701 1.18797 24.1137 1.41425L24.3559 0.353562C23.0316 0.127283 21.6588 0 20.27 0C18.8811 0 17.5245 0.127283 16.2002 0.353562Z" fill="#F9A8D4"/>
<path d="M0.802341 20.3289C0.802341 20.2483 0.802341 20.1678 0.802341 20.0872C0.802341 11.3393 6.61131 3.94473 14.5385 1.54428L14.4101 0.883766L14.394 0.770989V0.754883C6.08178 3.21974 0 10.9527 0 20.0872C0 20.2483 0 20.4094 0 20.5544C0.272798 20.49 0.545593 20.4094 0.802341 20.3289Z" fill="#D4D4D8"/>
<path d="M25.8838 1.52754C33.8213 3.94211 39.6173 11.3307 39.6173 20.0393C39.6173 20.1359 39.6173 20.2164 39.6173 20.3129C39.7138 20.3451 39.7946 20.3612 39.8909 20.3934L40.4222 20.5544C40.4222 20.3934 40.4222 20.2164 40.4222 20.0554C40.4222 10.9444 34.3527 3.23385 26.045 0.754883L25.8838 1.52754Z" fill="#D4D4D8"/>
<path d="M31.3672 35.7598C28.2093 37.943 24.3461 39.2282 20.1784 39.2282C16.0268 39.2282 12.1796 37.9586 9.03781 35.7908L8.50879 36.3638C11.7949 38.6552 15.8344 40.0024 20.1944 40.0024C24.5705 40.0024 28.61 38.6398 31.9123 36.3482L31.3672 35.7598Z" fill="#D4D4D8"/>
</g>
<defs>
<linearGradient id="paint0_linear_335_947" x1="27.1257" y1="35.0505" x2="27.1257" y2="0.401367" gradientUnits="userSpaceOnUse">
<stop offset="0.65" stop-color="#BE185D"/>
<stop offset="0.75" stop-color="#DB2777"/>
<stop offset="1" stop-color="#F9A8D4"/>
</linearGradient>
<linearGradient id="paint1_linear_335_947" x1="13.4043" y1="35.0517" x2="13.4043" y2="0.348633" gradientUnits="userSpaceOnUse">
<stop offset="0.65" stop-color="#BE185D"/>
<stop offset="0.75" stop-color="#DB2777"/>
<stop offset="1" stop-color="#F9A8D4"/>
</linearGradient>
<linearGradient id="paint2_linear_335_947" x1="0" y1="24.0904" x2="40.4239" y2="24.0904" gradientUnits="userSpaceOnUse">
<stop offset="0.65" stop-color="#BE185D"/>
<stop offset="0.75" stop-color="#DB2777"/>
<stop offset="1" stop-color="#F9A8D4"/>
</linearGradient>
<linearGradient id="paint3_linear_335_947" x1="36.5719" y1="35.2491" x2="36.5719" y2="21.9463" gradientUnits="userSpaceOnUse">
<stop stop-color="#BE185D"/>
<stop offset="0.5" stop-color="#DB2777"/>
<stop offset="1" stop-color="#F9A8D4"/>
</linearGradient>
<clipPath id="clip0_335_947">
<rect width="194.556" height="40" fill="white"/>
</clipPath>
</defs>
</svg>
