<?xml version="1.0" encoding="UTF-8"?><svg id="Layer_1" xmlns="http://www.w3.org/2000/svg" viewBox="0 0 157.54 32.84"><defs><style>.cls-1{fill:#154363;}.cls-2{fill:#28a9e1;}</style></defs><path class="cls-2" d="M0,25.19V.39H6.09V25.19H0Z"/><path class="cls-2" d="M9.92,25.19V6.45h5.74v1.27c1.42-1.09,3.09-1.63,5.03-1.63,1.46,0,2.76,.32,3.88,.96,1.12,.64,2,1.52,2.64,2.66s.96,2.44,.96,3.93v11.55h-5.74V14.42c0-1.04-.31-1.86-.92-2.48-.61-.61-1.44-.92-2.48-.92-.73,0-1.38,.13-1.93,.39-.56,.26-1.03,.63-1.43,1.1v12.68h-5.74Z"/><path class="cls-2" d="M40.63,25.55c-1.87,0-3.55-.43-5.05-1.28-1.5-.85-2.69-2.01-3.56-3.49-.87-1.48-1.31-3.12-1.31-4.94s.44-3.49,1.31-4.96c.87-1.46,2.06-2.63,3.56-3.49,1.5-.86,3.18-1.29,5.05-1.29,1.54,0,3,.3,4.39,.9s2.57,1.46,3.54,2.57l-3.51,3.65c-.66-.76-1.33-1.31-2.02-1.65s-1.44-.51-2.27-.51-1.57,.21-2.23,.62-1.18,.98-1.56,1.7c-.38,.72-.57,1.54-.57,2.46s.2,1.71,.58,2.43c.39,.72,.93,1.29,1.61,1.7s1.45,.62,2.3,.62c.78,0,1.5-.16,2.16-.5,.66-.33,1.3-.84,1.91-1.52l3.4,3.54c-.95,1.09-2.1,1.93-3.47,2.53-1.37,.6-2.8,.9-4.29,.9h0Z"/><path class="cls-1" d="M70.14,26.64l-1.63-2.06c-.8,.31-1.64,.55-2.5,.73-.86,.18-1.77,.27-2.71,.27-1.87,0-3.6-.32-5.21-.97s-3.01-1.56-4.22-2.73c-1.2-1.17-2.14-2.53-2.82-4.07-.67-1.55-1.01-3.22-1.01-5.01s.34-3.47,1.01-5.01c.67-1.55,1.61-2.9,2.82-4.07,1.2-1.17,2.61-2.08,4.22-2.73,1.61-.65,3.34-.97,5.21-.97s3.6,.32,5.21,.97c1.61,.65,3.01,1.56,4.22,2.73,1.2,1.17,2.14,2.53,2.82,4.07,.67,1.55,1.01,3.22,1.01,5.01s-.32,3.35-.97,4.87-1.54,2.86-2.67,4.02l2.41,3.05-5.17,1.91h0Zm-6.84-6.66c.26,0,.51-.01,.76-.04,.25-.02,.49-.06,.73-.11l-2.34-2.98,5.17-1.91,1.49,1.91c.38-.57,.67-1.2,.87-1.9,.2-.7,.3-1.42,.3-2.18,0-1.04-.18-2-.53-2.87-.35-.87-.84-1.63-1.47-2.27-.63-.64-1.36-1.14-2.21-1.5-.85-.37-1.77-.55-2.76-.55s-1.91,.18-2.76,.55c-.85,.37-1.59,.87-2.21,1.5-.63,.64-1.12,1.39-1.47,2.27s-.53,1.83-.53,2.87,.18,1.97,.53,2.85,.84,1.65,1.47,2.29c.63,.64,1.36,1.14,2.21,1.51,.85,.37,1.77,.55,2.76,.55h0Z"/><path class="cls-1" d="M86.83,25.55c-1.47,0-2.76-.32-3.88-.96-1.12-.64-2-1.53-2.64-2.67-.64-1.15-.96-2.45-.96-3.91V6.45h5.74v10.77c0,1.02,.31,1.84,.94,2.46,.63,.63,1.45,.94,2.46,.94,.73,0,1.38-.13,1.95-.39,.57-.26,1.04-.63,1.42-1.1V6.45h5.74V25.19h-5.74v-1.27c-1.42,1.09-3.09,1.63-5.03,1.63h0Z"/><path class="cls-1" d="M110.5,25.55c-1.91,0-3.64-.43-5.19-1.29-1.55-.86-2.77-2.02-3.67-3.49-.9-1.46-1.35-3.11-1.35-4.92s.43-3.46,1.29-4.92c.86-1.46,2.04-2.63,3.53-3.49,1.49-.86,3.14-1.29,4.96-1.29s3.47,.44,4.89,1.33,2.53,2.1,3.35,3.63c.81,1.54,1.22,3.29,1.22,5.28v1.42h-13.36c.26,.59,.61,1.11,1.04,1.56,.44,.45,.96,.8,1.58,1.04,.61,.25,1.27,.37,1.98,.37,.78,0,1.49-.12,2.13-.37,.64-.25,1.18-.6,1.63-1.04l3.79,3.37c-1.18,.99-2.39,1.71-3.63,2.16-1.24,.45-2.64,.67-4.2,.67h0Zm-4.43-11.76h7.83c-.19-.61-.48-1.14-.87-1.58-.39-.44-.84-.78-1.36-1.03-.52-.25-1.09-.37-1.7-.37s-1.22,.12-1.74,.35c-.52,.24-.96,.57-1.33,1.01-.37,.44-.64,.97-.83,1.61h0Z"/><path class="cls-1" d="M122.22,25.19V6.45h5.74v1.88c.61-.76,1.33-1.33,2.16-1.72s1.75-.58,2.76-.58c1.02,.02,1.74,.18,2.16,.46v5c-.38-.19-.8-.33-1.27-.43-.47-.09-.96-.14-1.45-.14-.9,0-1.73,.21-2.5,.62s-1.39,1-1.86,1.75v11.9h-5.74Z"/><path class="cls-1" d="M140.11,32.84c-.45,0-.89-.02-1.31-.05-.43-.04-.78-.09-1.06-.16v-4.89c.47,.09,1.06,.14,1.77,.14,1.84,0,3.08-.8,3.72-2.41v-.04l-7.19-18.99h6.34l4.14,11.8,4.82-11.8h6.2l-8.4,19.7c-.68,1.63-1.44,2.94-2.27,3.91-.83,.98-1.78,1.69-2.87,2.13-1.09,.44-2.39,.66-3.9,.66h0Z"/></svg>