<svg id="Layer_1" xmlns="http://www.w3.org/2000/svg" viewBox="0 0 2245.5 441.69"><defs><style>.cls-2{fill:#0085d1}.cls-3{fill:#14123b}</style></defs><path class="cls-3" d="M306.19 105.08c12.77 0 23.66 4.48 32.67 13.43 9.01 8.95 13.52 19.75 13.52 32.4s-4.51 23.42-13.52 32.31-19.9 13.34-32.67 13.34h-39.92v33.66h-23.09V105.08h63.02Zm-.72 69.28c6.56 0 12.17-2.3 16.83-6.89 4.65-4.59 6.98-10.12 6.98-16.56s-2.33-12-6.98-16.65-10.27-6.98-16.83-6.98h-39.21v47.08h39.21ZM466.96 105.08h23.09v125.14h-23.09V178.3h-68.21v51.92h-23.09V105.08h23.09v51.56h68.21v-51.56ZM589.42 105.08l49.95 125.14H616.1l-11.28-28.11h-61.05l-11.28 28.11h-23.45l50.13-125.14h30.26Zm-37.24 76.09h44.22l-22.2-55.32-22.02 55.32ZM743.92 187.25l32.23 42.97h-27.21l-28.82-38.67h-37.78v38.67h-23.09V105.08h65.7c12.05 0 22.38 4.24 30.97 12.71 8.59 8.48 12.89 18.68 12.89 30.61 0 8.48-2.27 16.17-6.8 23.09-4.54 6.92-10.56 12.17-18.08 15.75Zm-19.69-17.9c5.97 0 11.04-2.03 15.22-6.09 4.18-4.06 6.27-9.01 6.27-14.86s-2.09-10.83-6.27-14.95c-4.18-4.12-9.25-6.18-15.22-6.18h-41.89v42.07h41.89ZM933.87 105.08v125.14h-22.92v-82.17l-38.67 54.07h-13.43l-38.67-54.07v82.17h-23.09V105.08h18.08l50.31 70.54 50.49-70.54h17.9ZM1033.41 105.08l49.95 125.14h-23.27l-11.28-28.11h-61.05l-11.28 28.11h-23.45l50.13-125.14h30.26Zm-37.24 76.09h44.22l-22.2-55.32-22.02 55.32ZM1165.71 105.08c12.77 0 23.66 4.48 32.67 13.43 9.01 8.95 13.52 19.75 13.52 32.4s-4.51 23.42-13.52 32.31-19.9 13.34-32.67 13.34h-39.92v33.66h-23.09V105.08h63.02Zm-.72 69.28c6.56 0 12.17-2.3 16.83-6.89 4.65-4.59 6.98-10.12 6.98-16.56s-2.33-12-6.98-16.65-10.27-6.98-16.83-6.98h-39.21v47.08h39.21ZM1320.39 187.25l32.23 42.97h-27.21l-28.82-38.67h-37.78v38.67h-23.09V105.08h65.7c12.05 0 22.38 4.24 30.97 12.71 8.59 8.48 12.89 18.68 12.89 30.61 0 8.48-2.27 16.17-6.8 23.09-4.54 6.92-10.56 12.17-18.08 15.75Zm-19.69-17.9c5.97 0 11.04-2.03 15.22-6.09 4.18-4.06 6.27-9.01 6.27-14.86s-2.09-10.83-6.27-14.95c-4.18-4.12-9.25-6.18-15.22-6.18h-41.89v42.07h41.89ZM1384.66 121.01c12.89-12.89 28.4-19.33 46.55-19.33s33.69 6.44 46.64 19.33c12.95 12.89 19.42 28.41 19.42 46.55s-6.48 33.69-19.42 46.64c-12.95 12.95-28.5 19.42-46.64 19.42s-33.66-6.47-46.55-19.42c-12.89-12.95-19.33-28.49-19.33-46.64s6.44-33.66 19.33-46.55Zm16.29 76.89c8.35 8.41 18.44 12.62 30.26 12.62s21.93-4.21 30.35-12.62c8.41-8.41 12.62-18.53 12.62-30.35s-4.21-21.93-12.62-30.35c-8.41-8.41-18.53-12.62-30.35-12.62s-21.9 4.21-30.26 12.62c-8.36 8.41-12.53 18.53-12.53 30.35s4.18 21.93 12.53 30.35ZM1598.77 179.2c0 16-4.81 29.06-14.41 39.21-9.61 10.15-21.99 15.22-37.15 15.22-5.97 0-11.67-.96-17.1-2.86-5.43-1.91-10.09-4.44-13.96-7.61-3.88-3.16-7.01-6-9.4-8.5-2.39-2.51-4.48-5.07-6.27-7.7l18.98-13.07c1.55 2.27 3.37 4.48 5.46 6.62 2.09 2.15 5.22 4.36 9.4 6.62 4.18 2.27 8.47 3.4 12.89 3.4 8.83 0 15.81-2.8 20.95-8.41 5.13-5.61 7.7-13.25 7.7-22.92v-74.84h22.92v74.83ZM1734.3 126.56h-77.7v30.26h64.27v21.66h-64.27v30.08h77.7v21.66h-100.79V105.08h100.79v21.48ZM1847.62 199.07l15.58 16.83c-12.77 11.82-27.69 17.72-44.76 17.72-18.14 0-33.66-6.47-46.55-19.42-12.89-12.95-19.33-28.49-19.33-46.64s6.44-33.66 19.33-46.55 28.4-19.33 46.55-19.33 32.23 5.79 44.76 17.37l-15.75 17.01c-8.24-7.64-17.9-11.46-29-11.46-11.82 0-21.9 4.21-30.26 12.62-8.36 8.41-12.53 18.53-12.53 30.35s4.18 21.93 12.53 30.35c8.35 8.41 18.44 12.62 30.26 12.62s20.95-3.82 29.18-11.46ZM1880.56 105.08h110.64v21.48h-43.86v103.66h-22.92V126.56h-43.86v-21.48ZM2068.36 157.35c5.37 1.67 9.7 3.11 12.98 4.3 3.28 1.19 7.22 2.95 11.82 5.28 4.59 2.33 8.17 4.72 10.74 7.16 2.56 2.45 4.8 5.58 6.71 9.4 1.91 3.82 2.86 8 2.86 12.53 0 6.69-1.46 12.5-4.39 17.46-2.93 4.95-6.95 8.77-12.08 11.46-5.13 2.69-10.74 4.69-16.83 6-6.09 1.31-12.71 1.97-19.87 1.97-18.14 0-35.21-4.59-51.2-13.79l11.64-18.44c13.96 7.64 27.45 11.46 40.46 11.46 18.86 0 28.29-4.95 28.29-14.86 0-2.62-.75-4.98-2.24-7.07-1.49-2.09-3.85-3.94-7.07-5.55-3.22-1.61-6.24-2.92-9.04-3.94-2.81-1.01-6.71-2.3-11.73-3.85-.24-.12-.45-.18-.63-.18s-.36-.06-.54-.18a1.11 1.11 0 0 0-.63-.18c-5.85-1.79-10.32-3.22-13.43-4.3-3.1-1.07-7.07-2.77-11.91-5.1-4.83-2.33-8.5-4.71-11.01-7.16-2.51-2.44-4.74-5.64-6.71-9.58-1.97-3.94-2.95-8.35-2.95-13.25 0-10.14 4.18-18.32 12.53-24.53 9.07-6.56 21.9-9.85 38.49-9.85s32.34 4.6 48.34 13.79l-11.28 17.9c-13.37-7.4-26.08-11.1-38.13-11.1-8.48 0-14.92 1.16-19.34 3.49s-6.62 5.46-6.62 9.4c0 2.15.6 4.15 1.79 6 1.19 1.85 2.51 3.37 3.94 4.56 1.43 1.19 3.73 2.48 6.89 3.85 3.16 1.37 5.76 2.39 7.79 3.04 2.03.66 5.19 1.64 9.49 2.95 1.31.36 2.27.66 2.86.9ZM270.15 344.5c-3.95 0-7.57-.7-10.86-2.11-3.3-1.4-6.16-3.42-8.59-6.04-2.43-2.62-4.31-5.72-5.63-9.28-1.33-3.57-1.99-7.48-1.99-11.75s.72-7.82 2.15-11.31 3.42-6.55 5.96-9.2c2.54-2.65 5.48-4.7 8.84-6.16 3.35-1.46 6.97-2.19 10.86-2.19 2.76 0 5.44.42 8.07 1.26 2.62.84 5 2 7.13 3.49 2.13 1.49 3.88 3.18 5.23 5.07l-5.84 6.08c-1.57-1.57-3.15-2.88-4.74-3.93-1.59-1.05-3.22-1.85-4.86-2.39-1.65-.54-3.31-.81-4.99-.81-2.65 0-5.12.5-7.42 1.5s-4.3 2.39-6 4.17c-1.7 1.78-3.04 3.91-4.01 6.36-.97 2.46-1.46 5.15-1.46 8.07 0 3.08.47 5.88 1.42 8.39.94 2.51 2.28 4.66 4.01 6.44 1.73 1.78 3.8 3.15 6.2 4.09 2.4.95 5.07 1.42 7.99 1.42 1.78 0 3.54-.24 5.27-.73 1.73-.49 3.35-1.19 4.86-2.11 1.51-.92 2.89-2 4.13-3.24l4.38 7.13c-1.24 1.46-2.93 2.78-5.07 3.97-2.14 1.19-4.51 2.12-7.13 2.8-2.62.68-5.26 1.01-7.9 1.01ZM302.33 343.69v-56.75h8.76v56.75h-8.76ZM337.92 343.69v-48.32h-15.89v-8.43h41.02v8.43h-16.38v48.32h-8.75ZM373.83 343.69v-56.75h35.75v8.43h-27v39.88h27v8.43h-35.75Zm3.97-24.89v-8.43h27.32v8.43H377.8ZM423.6 343.69v-56.75h8.76v48.32h26.59v8.43H423.6ZM472.32 343.69v-56.75h8.76v56.75h-8.76ZM497.13 343.69v-56.75h7.86l34.7 46.45-1.3.73c-.22-1.35-.41-2.82-.57-4.42-.16-1.59-.31-3.3-.45-5.11-.14-1.81-.24-3.73-.32-5.76a378.5 378.5 0 0 1-.2-6.36c-.05-2.22-.08-4.51-.08-6.89v-18.65h8.76v56.75h-8.03l-34.13-44.75.89-1.14c.27 3.3.5 6.09.69 8.39.19 2.3.35 4.24.49 5.84.13 1.59.23 2.89.28 3.89.05 1 .09 1.82.12 2.47.03.65.04 1.22.04 1.7v23.59h-8.76ZM561.41 343.69v-56.75h35.75v8.43h-27v39.88h27v8.43h-35.75Zm3.97-24.89v-8.43h27.32v8.43h-27.32Z"/><path class="cls-2" d="M663.4 344.5c-3.95 0-7.57-.7-10.86-2.11-3.3-1.4-6.16-3.42-8.59-6.04-2.43-2.62-4.31-5.72-5.63-9.28-1.33-3.57-1.99-7.48-1.99-11.75s.72-7.82 2.15-11.31 3.42-6.55 5.96-9.2c2.54-2.65 5.48-4.7 8.84-6.16 3.35-1.46 6.97-2.19 10.86-2.19 2.76 0 5.44.42 8.07 1.26 2.62.84 5 2 7.13 3.49 2.13 1.49 3.88 3.18 5.23 5.07l-5.84 6.08c-1.57-1.57-3.15-2.88-4.74-3.93-1.59-1.05-3.22-1.85-4.86-2.39-1.65-.54-3.31-.81-4.99-.81-2.65 0-5.12.5-7.42 1.5s-4.3 2.39-6 4.17c-1.7 1.78-3.04 3.91-4.01 6.36-.97 2.46-1.46 5.15-1.46 8.07 0 3.08.47 5.88 1.42 8.39.94 2.51 2.28 4.66 4.01 6.44 1.73 1.78 3.8 3.15 6.2 4.09 2.4.95 5.07 1.42 7.99 1.42 1.78 0 3.54-.24 5.27-.73 1.73-.49 3.35-1.19 4.86-2.11 1.51-.92 2.89-2 4.13-3.24l4.38 7.13c-1.24 1.46-2.93 2.78-5.07 3.97-2.14 1.19-4.51 2.12-7.13 2.8-2.62.68-5.26 1.01-7.9 1.01ZM701.9 343.69v-56.75h8.76v48.32h26.59v8.43H701.9ZM757.11 343.69v-56.75h8.76v56.75h-8.76ZM788.4 343.69v-56.75h7.86l34.7 46.45-1.3.73c-.22-1.35-.41-2.82-.57-4.42-.16-1.59-.31-3.3-.45-5.11-.14-1.81-.24-3.73-.32-5.76a378.5 378.5 0 0 1-.2-6.36c-.05-2.22-.08-4.51-.08-6.89v-18.65h8.76v56.75h-8.03l-34.13-44.75.89-1.14c.27 3.3.5 6.09.69 8.39.19 2.3.35 4.24.49 5.84.13 1.59.23 2.89.28 3.89.05 1 .09 1.82.12 2.47.03.65.04 1.22.04 1.7v23.59h-8.76ZM859.33 343.69v-56.75h8.76v56.75h-8.76ZM913.65 344.5c-3.95 0-7.57-.7-10.86-2.11-3.3-1.4-6.16-3.42-8.59-6.04-2.43-2.62-4.31-5.72-5.63-9.28-1.33-3.57-1.99-7.48-1.99-11.75s.72-7.82 2.15-11.31 3.42-6.55 5.96-9.2c2.54-2.65 5.48-4.7 8.84-6.16 3.35-1.46 6.97-2.19 10.86-2.19 2.76 0 5.44.42 8.07 1.26 2.62.84 5 2 7.13 3.49 2.13 1.49 3.88 3.18 5.23 5.07l-5.84 6.08c-1.57-1.57-3.15-2.88-4.74-3.93-1.59-1.05-3.22-1.85-4.86-2.39-1.65-.54-3.31-.81-4.99-.81-2.65 0-5.12.5-7.42 1.5s-4.3 2.39-6 4.17c-1.7 1.78-3.04 3.91-4.01 6.36-.97 2.46-1.46 5.15-1.46 8.07 0 3.08.47 5.88 1.42 8.39.94 2.51 2.28 4.66 4.01 6.44 1.73 1.78 3.8 3.15 6.2 4.09 2.4.95 5.07 1.42 7.99 1.42 1.78 0 3.54-.24 5.27-.73 1.73-.49 3.35-1.19 4.86-2.11 1.51-.92 2.89-2 4.13-3.24l4.38 7.13c-1.24 1.46-2.93 2.78-5.07 3.97-2.14 1.19-4.51 2.12-7.13 2.8-2.62.68-5.26 1.01-7.9 1.01ZM946.23 343.69l21.97-56.75h8.92l21.81 56.75h-9.32l-12.97-34.21c-.16-.38-.47-1.3-.93-2.76-.46-1.46-.99-3.08-1.58-4.86-.6-1.78-1.13-3.42-1.62-4.9-.49-1.49-.81-2.44-.97-2.88l1.86-.08c-.32.92-.72 2.08-1.18 3.49-.46 1.41-.95 2.89-1.46 4.46-.51 1.57-1.01 3.04-1.5 4.42s-.89 2.53-1.22 3.45l-12.89 33.89h-8.92Zm9.73-14.11 3.24-8.43h25.78l3.73 8.43h-32.75ZM1015.38 343.69v-56.75h8.76v48.32h26.59v8.43h-35.35Z"/><path style="fill:none;stroke:#00cfff;stroke-miterlimit:10;stroke-width:15px" d="M127.94 104.9v238.79"/></svg>
